<svg xmlns="http://www.w3.org/2000/svg" viewBox="0 405.715 900 688.288">
<g>
	<g>
		<path fill-rule="evenodd" clip-rule="evenodd" fill="#FFFFFF" d="M13.5,405.5c291.335,0,582.659,0,874,0
			c0,229.665,0,459.339,0,689c-291.667,0-583.331,0-875,0c0-228.671,0-457.327,0-686C12.414,407.081,12.335,405.668,13.5,405.5z
			 M443.5,424.5c-34.428-1.653-70.826,2.577-106,9c-32.934,6.014-65.145,14.788-84,30c-10.969,8.85-16.868,27.472-7,40
			c10.065,12.779,38.5,23.761,60,30c56.767,16.475,139.814,22.198,211,14c24.496-2.821,52.423-6.563,77-14
			c26.436-7.999,61.484-21.54,66-47c-3.172-2.162-1.658-9.008-4-12C616.767,431.785,519.802,423.417,443.5,424.5z M186.5,944.5
			c0,32.538-2.902,63.456,10,80c15.986,20.498,41.314,31.288,69,41c43.416,15.23,94.533,23.931,149,28
			c21.591,1.613,48.978,1.854,72,0c44.11-3.553,93.021-8.169,134-22c33.556-11.325,84.035-29.635,92-64c4.118-17.769,1-41.749,1-63
			c0-152.842,0-303.656,0-453c-10.349,46.884-65.017,65.538-116,79c-44.514,11.754-97.816,16-148,16c-52.317,0-101.259-3.357-148-16
			c-50.515-13.664-107.692-35.327-115-79C186.5,645.479,186.5,791.729,186.5,944.5z"/>
		<path fill-rule="evenodd" clip-rule="evenodd" d="M656.5,474.5c2.342,2.992,0.828,9.838,4,12c-4.516,25.46-39.564,39.001-66,47
			c-24.577,7.437-52.504,11.179-77,14c-71.186,8.198-154.233,2.475-211-14c-21.5-6.239-49.935-17.221-60-30
			c-9.868-12.528-3.969-31.15,7-40c18.855-15.212,51.066-23.986,84-30c35.174-6.423,71.572-10.653,106-9
			C519.802,423.417,616.767,431.785,656.5,474.5z"/>
		<path fill-rule="evenodd" clip-rule="evenodd" d="M186.5,491.5c7.308,43.673,64.485,65.336,115,79c46.741,12.643,95.683,16,148,16
			c50.184,0,103.486-4.246,148-16c50.983-13.462,105.651-32.116,116-79c0,149.344,0,300.158,0,453c0,21.251,3.118,45.231-1,63
			c-7.965,34.365-58.444,52.675-92,64c-40.979,13.831-89.89,18.447-134,22c-23.022,1.854-50.409,1.613-72,0
			c-54.467-4.069-105.584-12.77-149-28c-27.686-9.712-53.014-20.502-69-41c-12.902-16.544-10-47.462-10-80
			C186.5,791.729,186.5,645.479,186.5,491.5z M314.5,721.5c-31.941,4.037-53.218,18.314-56,49c4.037,15.887,6.604,27.51,20,38
			c14.972,11.725,44.308,15.834,49,33c5.854,21.416-23.039,26.292-43,21c-9.412-2.495-18.929-12.771-24-12
			c0.615,10.718-1.264,23.931,1,33c40.284,20.124,98.272,5.76,104-30c2.506-15.646-1.688-29.517-7-36
			c-6.344-7.742-18.603-15.131-30-21c-11.821-6.087-27.172-12.747-30-21c-12.379-36.125,48.898-24.733,60-16c0-10.333,0-20.667,0-31
			C346.249,723.751,331.154,721.846,314.5,721.5z M544.5,816.5c0.729-6.645,0.741-14.443,0-21c-4.705-41.607-37.176-77.342-84-74
			c-25.775,1.84-40.331,13.47-56,25c-5.384,8.949-10.91,17.757-16,27c-16.467,62.502,11.488,116.6,71,119
			c5.317,5.004,11.148,11.334,18,19c4.891,5.472,11.332,17.171,18,19c12.771,3.503,29.673-1.709,45-1
			c-17.277-12.724-31.561-28.439-47-43C523.571,873.489,540.667,851.408,544.5,816.5z M573.5,724.5
			c-2.333,53.001-0.334,110.333-1,165c33,0,66,0,99,0c-0.605-9.728,1.25-21.917-1-30c-20.333,0-40.667,0-61,0c0-45,0-90,0-135
			C597.5,724.5,585.5,724.5,573.5,724.5z"/>
		<path fill-rule="evenodd" clip-rule="evenodd" fill="#FFFFFF" d="M358.5,728.5c0,10.333,0,20.667,0,31
			c-11.102-8.733-72.379-20.125-60,16c2.828,8.253,18.179,14.913,30,21c11.397,5.869,23.656,13.258,30,21
			c5.313,6.483,9.506,20.354,7,36c-5.728,35.76-63.716,50.124-104,30c-2.264-9.069-0.385-22.282-1-33
			c5.071-0.771,14.588,9.505,24,12c19.961,5.292,48.854,0.416,43-21c-4.692-17.166-34.028-21.275-49-33
			c-13.396-10.49-15.963-22.113-20-38c2.782-30.686,24.059-44.963,56-49C331.154,721.846,346.249,723.751,358.5,728.5z"/>
		<path fill-rule="evenodd" clip-rule="evenodd" fill="#FFFFFF" d="M493.5,886.5c15.439,14.561,29.723,30.276,47,43
			c-15.327-0.709-32.229,4.503-45,1c-6.668-1.829-13.109-13.528-18-19c-6.852-7.666-12.683-13.996-18-19
			c-59.512-2.4-87.467-56.498-71-119c5.09-9.243,10.616-18.051,16-27c15.669-11.53,30.225-23.16,56-25
			c46.824-3.342,79.295,32.393,84,74c0.741,6.557,0.729,14.355,0,21C540.667,851.408,523.571,873.489,493.5,886.5z M421.5,819.5
			c5.781,43.642,58.178,56.046,78,22c9.796-16.824,9.192-52.488,0-69c-8.076-14.507-24.354-21.079-43-18
			C429.695,758.926,417.476,789.126,421.5,819.5z"/>
		<path fill-rule="evenodd" clip-rule="evenodd" fill="#FFFFFF" d="M609.5,724.5c0,45,0,90,0,135c20.333,0,40.667,0,61,0
			c2.25,8.083,0.395,20.272,1,30c-33,0-66,0-99,0c0.666-54.667-1.333-111.999,1-165C585.5,724.5,597.5,724.5,609.5,724.5z"/>
		<path fill-rule="evenodd" clip-rule="evenodd" d="M456.5,754.5c18.646-3.079,34.924,3.493,43,18c9.192,16.512,9.796,52.176,0,69
			c-19.822,34.046-72.219,21.642-78-22C417.476,789.126,429.695,758.926,456.5,754.5z"/>
	</g>
</g>
<path display="none" fill="#F7A80D" d="M267.813,844.683l-80.156,34.425l74.243,31.739l86.07-31.739L267.813,844.683
	L267.813,844.683z M147.312,887.714l-2.686,154.927l117.274,51.645V933.438L147.312,887.714L147.312,887.714z M388.314,887.714
	l-105.981,40.353v151.699l105.981-43.038V887.714L388.314,887.714z M514.729,405.715l-80.69,34.425l74.777,31.746l86.069-31.746
	L514.729,405.715z M402.834,451.439v154.926l100.063,29.054l3.227-140.948L402.834,451.439L402.834,451.439z M626.625,460.045
	l-94.683,40.346v152.24l94.683-43.038V460.045z M135.745,623.768L55.596,658.2l74.236,31.739l86.069-31.739L135.745,623.768
	L135.745,623.768z M15.244,666.807l-2.686,154.926l117.274,51.645V712.53L15.244,666.807z M256.24,666.807l-105.968,40.345v151.692
	l105.968-43.031V666.807L256.24,666.807z M393.961,618.03l-80.156,34.433l74.236,31.738l86.069-31.738L393.961,618.03
	L393.961,618.03z M273.466,661.068l-2.693,154.934l117.274,51.645V706.793L273.466,661.068z M514.463,661.068l-105.976,40.346
	V853.12l105.976-43.038V661.068z M766.94,405.715l-80.149,34.425l74.243,31.746l86.069-31.746L766.94,405.715L766.94,405.715z
	 M646.446,448.753L643.76,603.68l117.274,51.638V494.471L646.446,448.753L646.446,448.753z M887.442,448.753l-105.968,40.346
	v151.699l105.968-43.031V448.753z"/>
</svg>
